<svg id="svg" version="1.1" width="800" height="800" xmlns="http://www.w3.org/2000/svg"><path d="M297.500 13.200 C 294.750 14.875,289.037 18.103,284.804 20.373 C 280.571 22.643,275.396 25.502,273.304 26.726 C 271.212 27.951,268.538 29.383,267.362 29.909 C 266.186 30.435,260.111 33.752,253.862 37.279 C 242.887 43.474,237.851 46.258,224.000 53.784 C 220.425 55.726,216.150 58.070,214.500 58.992 C 212.850 59.914,205.425 64.048,198.000 68.177 C 185.325 75.227,179.865 78.235,167.356 85.056 C 152.937 92.919,143.346 98.224,142.000 99.083 C 141.175 99.610,139.150 100.724,137.500 101.561 C 135.850 102.397,132.700 104.165,130.500 105.489 C 128.300 106.814,125.487 108.359,124.249 108.924 C 123.011 109.489,116.936 112.793,110.749 116.266 C 104.562 119.740,98.375 123.149,97.000 123.842 C 95.625 124.536,93.015 125.889,91.200 126.850 L 87.900 128.598 87.965 449.549 L 88.029 770.500 196.265 770.500 L 304.500 770.500 304.757 701.333 L 305.014 632.166 310.757 634.999 C 317.131 638.143,331.764 645.054,342.500 649.991 C 351.169 653.977,362.592 659.293,370.500 663.022 C 390.603 672.500,396.327 675.173,401.133 677.327 C 406.860 679.894,415.636 684.009,433.786 692.636 C 439.994 695.586,445.245 698.000,445.457 698.000 C 445.819 698.000,462.370 705.704,475.500 711.985 C 488.769 718.332,505.180 726.000,505.494 726.000 C 505.800 726.000,516.621 731.031,534.500 739.484 C 554.812 749.088,563.204 753.000,563.492 753.000 C 563.820 753.000,577.646 759.483,595.731 768.116 C 601.358 770.802,606.153 773.000,606.387 773.000 C 606.621 773.000,612.592 775.731,619.656 779.070 C 626.720 782.408,635.425 786.508,639.000 788.180 C 642.575 789.853,647.726 792.296,650.446 793.611 C 656.750 796.656,658.381 796.687,657.680 793.750 C 657.034 791.038,655.694 783.105,653.500 769.000 C 652.602 763.225,651.027 753.550,650.000 747.500 C 648.973 741.450,647.395 731.775,646.493 726.000 C 644.358 712.330,641.289 694.147,638.899 681.000 C 636.554 668.097,636.537 666.403,638.750 665.593 C 639.712 665.240,642.167 663.950,644.205 662.726 C 654.472 656.557,665.401 650.071,673.500 645.343 C 678.450 642.452,683.003 639.656,683.618 639.127 C 684.233 638.599,686.933 637.008,689.618 635.591 C 692.303 634.174,696.170 631.998,698.211 630.757 C 705.038 626.605,715.392 620.406,728.000 612.923 C 734.875 608.842,741.400 604.947,742.500 604.268 C 743.600 603.588,745.256 602.755,746.181 602.417 C 748.906 601.421,749.208 599.032,746.731 598.064 C 744.506 597.194,731.877 591.382,720.500 585.991 C 697.259 574.980,688.758 571.000,688.480 571.000 C 688.197 571.000,673.489 564.157,659.500 557.517 C 650.336 553.167,635.582 546.263,628.500 543.010 C 618.744 538.529,609.707 534.336,601.500 530.482 C 584.285 522.397,575.983 518.526,569.000 515.327 C 555.411 509.102,555.874 510.119,564.711 505.909 C 568.995 503.868,576.100 500.533,580.500 498.499 C 597.104 490.821,601.720 488.670,609.500 484.984 C 613.900 482.900,620.875 479.635,625.000 477.729 C 643.033 469.397,648.204 466.985,670.500 456.507 C 680.053 452.017,692.532 446.221,698.000 443.733 C 701.025 442.357,708.744 438.704,715.154 435.615 C 721.564 432.527,727.302 430.000,727.904 430.000 C 728.693 430.000,729.000 396.246,729.000 309.723 L 729.000 189.445 722.250 186.610 C 714.289 183.265,712.638 182.569,699.500 177.007 C 684.157 170.512,682.790 169.929,678.500 168.051 C 676.300 167.088,672.475 165.490,670.000 164.500 C 667.525 163.510,663.700 161.904,661.500 160.931 C 659.300 159.958,653.000 157.280,647.500 154.981 C 633.083 148.952,630.844 148.005,627.500 146.518 C 625.850 145.784,620.450 143.516,615.500 141.479 C 610.550 139.441,604.700 136.963,602.500 135.973 C 600.300 134.983,594.000 132.302,588.500 130.016 C 583.000 127.731,577.600 125.473,576.500 125.000 C 575.400 124.527,570.000 122.262,564.500 119.967 C 559.000 117.672,553.150 115.199,551.500 114.472 C 549.850 113.744,546.925 112.494,545.000 111.695 C 541.629 110.295,533.435 106.822,524.000 102.796 C 521.525 101.740,518.150 100.277,516.500 99.545 C 514.850 98.813,509.450 96.543,504.500 94.500 C 492.064 89.369,488.963 88.062,485.500 86.491 C 483.850 85.742,479.125 83.724,475.000 82.006 C 470.875 80.288,466.600 78.502,465.500 78.038 C 464.400 77.573,459.000 75.315,453.500 73.021 C 448.000 70.726,442.150 68.241,440.500 67.498 C 436.846 65.854,432.544 64.033,424.000 60.513 C 420.425 59.040,415.165 56.747,412.312 55.418 C 409.458 54.088,406.830 53.000,406.471 53.000 C 406.112 53.000,401.472 51.141,396.159 48.870 C 390.847 46.598,384.925 44.078,383.000 43.271 C 381.075 42.463,377.700 41.010,375.500 40.043 C 371.349 38.217,360.717 33.682,355.500 31.511 C 339.400 24.812,326.975 19.589,324.500 18.480 C 315.045 14.243,304.504 10.010,303.574 10.077 C 302.983 10.119,300.250 11.524,297.500 13.200 M314.500 17.514 C 316.150 18.241,322.450 20.922,328.500 23.471 C 334.550 26.019,340.400 28.488,341.500 28.956 C 342.600 29.424,348.000 31.685,353.500 33.979 C 359.000 36.274,364.850 38.759,366.500 39.502 C 368.150 40.244,371.075 41.514,373.000 42.323 C 374.925 43.132,382.350 46.265,389.500 49.284 C 396.650 52.303,408.125 57.135,415.000 60.020 C 421.875 62.906,432.225 67.283,438.000 69.748 C 443.775 72.213,449.850 74.797,451.500 75.491 C 463.911 80.708,481.851 88.291,483.500 89.016 C 484.600 89.500,490.450 91.973,496.500 94.512 C 502.550 97.051,508.400 99.518,509.500 99.995 C 510.600 100.471,516.000 102.738,521.500 105.033 C 527.000 107.328,532.850 109.823,534.500 110.578 C 536.150 111.332,543.575 114.488,551.000 117.590 C 558.425 120.692,570.800 125.899,578.500 129.162 C 586.200 132.424,593.400 135.470,594.500 135.930 C 602.873 139.432,617.033 145.411,619.500 146.487 C 621.150 147.206,627.000 149.675,632.500 151.973 C 638.000 154.271,643.850 156.766,645.500 157.516 C 647.150 158.266,654.350 161.331,661.500 164.327 C 672.280 168.845,688.102 175.524,704.500 182.478 C 706.150 183.178,711.656 185.494,716.735 187.625 L 725.970 191.500 725.985 307.725 L 726.000 423.950 723.750 423.052 C 722.513 422.558,719.700 421.271,717.500 420.194 C 715.300 419.116,710.575 416.879,707.000 415.223 C 701.533 412.692,676.919 401.268,650.000 388.769 C 646.425 387.109,637.493 382.882,630.152 379.376 C 622.811 375.869,616.660 373.000,616.483 373.000 C 616.169 373.000,604.738 367.690,588.164 359.844 C 583.579 357.674,576.829 354.526,573.164 352.849 C 564.223 348.758,555.583 344.733,543.164 338.875 C 537.479 336.194,532.684 334.000,532.509 334.000 C 532.334 334.000,525.611 330.850,517.570 327.000 C 509.529 323.150,502.785 320.000,502.583 320.000 C 502.381 320.000,491.480 314.907,478.358 308.681 C 465.236 302.456,452.925 296.643,451.000 295.764 C 449.075 294.885,442.640 291.878,436.699 289.083 C 430.759 286.287,425.740 284.000,425.547 284.000 C 425.354 284.000,418.964 281.038,411.348 277.417 C 393.494 268.930,388.457 266.564,371.500 258.704 C 363.800 255.135,354.125 250.617,350.000 248.663 C 316.136 232.629,305.682 228.181,304.127 229.146 C 302.889 229.914,299.753 228.853,291.000 224.704 C 284.675 221.707,277.025 218.121,274.000 216.735 C 270.975 215.350,264.675 212.423,260.000 210.231 C 255.325 208.039,248.350 204.789,244.500 203.010 C 228.808 195.757,225.877 194.381,211.129 187.339 C 202.675 183.303,195.624 180.000,195.460 180.000 C 195.190 180.000,185.300 175.420,169.500 167.979 C 166.200 166.424,160.125 163.601,156.000 161.704 C 151.875 159.808,144.900 156.567,140.500 154.502 C 125.400 147.417,112.487 141.402,101.750 136.454 C 95.838 133.729,91.011 131.275,91.025 131.000 C 91.038 130.725,98.105 126.675,106.730 122.000 C 115.354 117.325,125.356 111.901,128.955 109.946 C 139.574 104.178,163.376 91.001,165.000 89.990 C 165.825 89.476,168.525 87.991,171.000 86.690 C 173.475 85.388,181.575 80.938,189.000 76.800 C 210.476 64.833,212.091 63.943,220.000 59.717 C 224.125 57.512,231.698 53.299,236.829 50.354 C 241.960 47.409,246.310 45.000,246.496 45.000 C 246.681 45.000,251.203 42.525,256.545 39.500 C 261.886 36.475,266.343 34.000,266.449 34.000 C 266.554 34.000,275.087 29.315,285.411 23.589 L 304.181 13.178 307.841 14.684 C 309.853 15.513,312.850 16.786,314.500 17.514 M93.764 135.999 C 94.719 136.548,101.125 139.609,108.000 142.801 C 114.875 145.992,161.089 167.480,210.698 190.552 L 300.896 232.500 300.941 395.000 C 300.965 484.375,301.288 604.638,301.657 662.250 L 302.328 767.000 196.664 767.000 L 91.000 767.000 91.000 451.000 C 91.000 277.200,91.231 135.000,91.514 135.000 C 91.796 135.000,92.809 135.449,93.764 135.999 M328.500 241.998 C 331.800 243.559,339.794 247.348,346.264 250.418 C 352.735 253.488,358.211 256.000,358.434 256.000 C 358.808 256.000,374.195 263.173,388.500 270.015 C 401.907 276.429,418.184 284.000,418.564 284.000 C 418.787 284.000,423.588 286.202,429.235 288.894 C 450.457 299.011,463.215 305.000,463.543 305.000 C 463.729 305.000,467.846 306.843,472.691 309.096 C 477.536 311.349,483.750 314.228,486.500 315.494 C 489.250 316.760,495.775 319.805,501.000 322.259 C 506.225 324.714,514.100 328.385,518.500 330.418 C 527.405 334.532,529.893 335.693,545.000 342.781 C 550.775 345.491,558.200 348.952,561.500 350.472 C 567.136 353.069,578.759 358.514,592.500 364.995 C 599.340 368.222,611.685 373.947,620.500 377.982 C 629.331 382.024,639.078 386.589,651.786 392.633 C 657.994 395.585,663.239 398.000,663.442 398.000 C 663.799 398.000,683.164 407.054,695.500 412.988 C 698.800 414.575,707.013 418.458,713.750 421.617 C 724.730 426.764,728.113 429.000,724.923 429.000 C 724.330 429.000,717.693 431.975,710.173 435.612 C 696.935 442.014,694.242 443.288,676.000 451.782 C 663.525 457.591,652.303 462.827,645.500 466.014 C 642.200 467.560,636.350 470.273,632.500 472.044 C 628.650 473.815,622.125 476.831,618.000 478.746 C 611.270 481.870,606.809 483.962,585.500 493.988 C 565.898 503.211,561.965 505.002,561.270 505.022 C 560.847 505.034,559.375 505.924,558.000 507.000 C 556.625 508.076,554.960 508.966,554.301 508.978 C 553.641 508.990,548.241 506.716,542.301 503.925 C 527.611 497.024,524.685 495.659,515.981 491.653 C 511.845 489.749,504.195 486.181,498.981 483.723 C 493.766 481.265,487.025 478.115,484.000 476.723 C 480.975 475.331,474.450 472.292,469.500 469.971 C 449.734 460.699,431.529 452.208,423.500 448.516 C 420.750 447.252,414.507 444.337,409.626 442.040 C 404.746 439.743,397.771 436.499,394.126 434.832 C 385.474 430.872,377.075 426.947,363.170 420.364 C 356.938 417.414,351.684 415.000,351.495 415.000 C 351.305 415.000,345.379 412.252,338.325 408.894 C 317.905 399.172,311.752 396.306,307.750 394.652 L 304.000 393.102 304.000 311.729 L 304.000 230.356 313.250 234.758 C 318.337 237.180,325.200 240.438,328.500 241.998 M463.250 313.343 C 458.465 315.297,456.484 317.000,458.997 317.000 C 459.938 317.000,463.863 318.740,480.500 326.528 C 484.350 328.331,491.550 331.695,496.500 334.003 C 501.450 336.312,508.650 339.689,512.500 341.507 C 516.350 343.326,521.975 345.936,525.000 347.308 C 528.025 348.680,534.550 351.692,539.500 354.001 C 544.450 356.310,552.325 359.980,557.000 362.156 C 561.675 364.332,567.750 367.177,570.500 368.478 C 576.124 371.138,589.003 377.152,599.500 382.018 C 603.350 383.802,610.325 387.056,615.000 389.249 C 619.675 391.442,626.650 394.713,630.500 396.518 C 637.061 399.596,641.003 401.417,658.500 409.460 C 662.350 411.229,668.875 414.277,673.000 416.233 C 695.055 426.690,710.947 434.000,711.625 434.000 C 711.831 434.000,712.000 433.549,712.000 432.997 C 712.000 432.225,694.056 423.000,692.554 423.000 C 692.375 423.000,685.989 420.041,678.364 416.424 C 670.739 412.808,662.700 409.021,660.500 408.009 C 658.300 406.997,653.575 404.824,650.000 403.181 C 646.425 401.537,637.740 397.449,630.700 394.096 C 623.659 390.743,617.733 388.000,617.530 388.000 C 617.327 388.000,612.062 385.584,605.830 382.630 C 599.599 379.677,590.450 375.343,585.500 372.998 C 580.550 370.654,573.800 367.513,570.500 366.019 C 562.854 362.556,555.791 359.252,539.136 351.345 C 531.786 347.855,525.625 345.000,525.446 345.000 C 525.267 345.000,520.931 343.033,515.810 340.628 C 510.690 338.224,503.575 334.893,500.000 333.227 C 496.425 331.560,489.000 328.078,483.500 325.489 C 478.000 322.901,471.587 319.948,469.250 318.927 C 464.238 316.738,463.882 315.248,468.000 313.694 C 470.998 312.562,472.112 310.911,469.750 311.100 C 469.063 311.155,466.137 312.164,463.250 313.343 M313.500 400.535 C 316.800 402.058,325.507 406.160,332.848 409.652 C 340.189 413.143,346.354 416.000,346.547 416.000 C 346.740 416.000,351.759 418.293,357.699 421.096 C 363.640 423.898,371.425 427.557,375.000 429.227 C 378.575 430.897,385.100 433.944,389.500 436.000 C 393.900 438.056,400.650 441.196,404.500 442.978 C 408.350 444.761,414.650 447.702,418.500 449.515 C 428.140 454.053,440.334 459.727,447.500 463.009 C 450.800 464.520,458.000 467.882,463.500 470.480 C 469.000 473.078,475.975 476.342,479.000 477.734 C 488.516 482.112,499.112 487.073,510.808 492.629 C 517.028 495.583,522.298 498.000,522.520 498.000 C 522.741 498.000,529.514 501.150,537.570 505.000 C 545.627 508.850,552.799 512.000,553.510 512.000 C 554.714 512.000,559.437 514.101,581.000 524.227 C 597.124 531.799,606.512 536.186,610.500 538.010 C 616.587 540.795,630.178 547.164,643.330 553.395 C 649.837 556.478,655.311 559.000,655.494 559.000 C 655.820 559.000,664.338 562.994,688.308 574.388 C 694.803 577.474,700.279 580.000,700.477 580.000 C 700.675 580.000,705.037 581.979,710.169 584.398 C 715.301 586.817,724.376 591.092,730.336 593.898 C 736.296 596.704,741.583 599.000,742.086 599.000 C 743.891 599.000,742.951 600.916,740.520 602.195 C 739.155 602.913,729.699 608.450,719.506 614.500 C 709.312 620.550,700.191 625.956,699.236 626.513 C 698.281 627.070,695.259 628.870,692.520 630.513 C 689.782 632.156,686.758 633.950,685.801 634.500 C 680.886 637.326,657.229 651.469,650.255 655.750 C 647.343 657.538,644.767 659.000,644.531 659.000 C 643.310 659.000,634.761 665.459,634.263 666.758 C 633.944 667.588,634.688 673.944,635.915 680.883 C 638.442 695.175,640.097 705.000,643.009 723.000 C 645.303 737.181,647.142 748.385,649.903 765.000 C 653.775 788.305,654.197 791.136,653.852 791.465 C 653.659 791.649,649.900 790.082,645.500 787.981 C 637.797 784.303,630.610 780.937,613.500 772.992 C 609.100 770.949,602.575 767.907,599.000 766.231 C 588.466 761.294,566.516 751.078,552.500 744.590 C 541.566 739.528,538.284 737.990,525.000 731.705 C 518.675 728.713,511.250 725.245,508.500 724.000 C 500.789 720.507,487.047 714.144,481.500 711.498 C 478.750 710.186,472.675 707.332,468.000 705.156 C 463.325 702.980,455.450 699.310,450.500 697.001 C 445.550 694.692,439.025 691.660,436.000 690.264 C 432.975 688.867,425.411 685.312,419.192 682.362 C 412.972 679.413,407.721 677.000,407.522 677.000 C 407.220 677.000,398.448 672.937,380.500 664.486 C 378.850 663.709,370.373 659.682,361.662 655.537 C 352.951 651.391,345.675 648.000,345.493 648.000 C 345.156 648.000,332.903 642.303,316.277 634.417 C 311.204 632.011,306.366 630.306,305.527 630.628 C 304.163 631.151,304.000 618.584,304.000 512.952 C 304.000 400.402,304.085 394.764,305.750 396.228 C 306.712 397.074,310.200 399.012,313.500 400.535 " stroke="none" fill="#000000" fill-rule="evenodd"/></svg>