<?xml version="1.0" encoding="UTF-8" standalone="no"?>
<!-- Created with Inkscape (http://www.inkscape.org/) -->

<svg
   version="1.1"
   id="svg1"
   width="400"
   height="400"
   viewBox="0 0 400 400"
   xmlns="http://www.w3.org/2000/svg"
   xmlns:svg="http://www.w3.org/2000/svg">
  <defs
     id="defs1" />
  <path
     style="fill:#666666;fill-opacity:1;stroke-width:1.36139"
     d="m 55.602412,357.86082 c -1.255018,-0.34035 -3.098981,-1.03751 -4.097696,-1.54926 -2.520171,-1.29133 -6.079338,-4.78219 -7.444705,-7.30182 -2.661486,-4.91148 -2.476767,6.17091 -2.476767,-148.59574 0,-103.058042 0.132499,-141.972196 0.489144,-143.659123 1.663246,-7.867125 8.014345,-13.70944 16.02922,-14.745127 4.429167,-0.572339 279.425862,-0.572339 283.855042,0 8.12589,1.050033 14.54574,7.072384 16.06308,15.068515 0.36393,1.917843 0.46015,39.976029 0.36586,144.715775 l -0.12796,142.11359 -0.98431,2.40131 c -2.02825,4.94809 -6.08759,9.05689 -10.8602,10.99247 l -2.50036,1.01406 -143.01425,0.0822 C 78.661256,358.46775 57.552755,358.3895 55.602412,357.86093 Z M 343.10525,344.62546 c 1.12818,-0.82084 1.89892,-1.82779 2.25572,-2.94705 0.42931,-1.34675 0.51585,-30.98933 0.41628,-142.58888 l -0.12566,-140.88871 -1.50215,-1.556612 c -0.82618,-0.856136 -2.19545,-1.750066 -3.04284,-1.98651 -2.11806,-0.590993 -280.036772,-0.590993 -282.154831,0 -0.847392,0.236444 -2.216676,1.130374 -3.042857,1.98651 l -1.502147,1.556612 -0.110654,141.48885 -0.110654,141.48886 0.886271,1.4403 c 0.487449,0.79218 1.515305,1.84497 2.284123,2.33955 l 1.397853,0.89925 141.318926,0.007 141.31894,0.007 z M 92.442416,329.28575 c -8.562389,-0.23957 -9.524143,-0.34621 -11.471814,-1.27196 -3.122967,-1.48436 -5.787626,-4.18275 -7.571962,-7.66778 l -1.572356,-3.07103 -0.297391,-10.91502 c -0.390357,-14.32705 -0.385935,-199.3879 0.0051,-213.497848 l 0.302493,-10.915023 1.389044,-2.800535 c 0.763974,-1.540292 1.732581,-3.187379 2.152457,-3.66019 1.536255,-1.729937 5.171064,-4.118177 7.501165,-4.928616 2.292446,-0.797343 4.286654,-0.831558 48.468358,-0.831558 43.89424,0 46.18846,0.0387 48.41869,0.816865 4.70901,1.643037 7.31559,4.031902 9.69552,8.885712 l 1.43884,2.934441 0.28148,10.925264 c 0.15482,6.008894 0.31178,36.269948 0.3488,67.246788 0.0371,30.97683 0.24453,59.75974 0.4611,63.96202 0.60753,11.78836 0.97289,65.0262 0.54683,79.67967 l -0.38083,13.09803 -1.41407,2.76538 c -1.88456,3.68549 -4.33697,6.2705 -7.35678,7.75456 -2.44672,1.20242 -2.64642,1.22566 -13.13449,1.52844 -12.56085,0.36263 -64.4016,0.33757 -77.810185,-0.0376 z m 83.928174,-12.23084 c 0.85454,-0.23843 2.02821,-0.94083 2.60816,-1.56088 l 1.05446,-1.12737 v -40.45953 c 0,-25.03101 -0.2072,-45.49707 -0.54337,-53.6699 -0.36878,-8.96602 -0.54337,-32.64455 -0.54337,-73.69809 0,-52.810171 -0.0824,-60.64784 -0.64955,-61.749323 -1.44535,-2.807261 1.82809,-2.624427 -46.98751,-2.624427 -43.487414,0 -44.423119,0.01766 -45.487284,0.858404 -0.597585,0.472121 -1.310805,1.405356 -1.584933,2.073853 -0.371394,0.905701 -0.469474,30.274403 -0.384859,115.242273 l 0.11355,114.02683 1.062781,1.13624 c 0.584532,0.62492 1.660397,1.31067 2.390816,1.52388 1.88283,0.54961 86.985629,0.57644 88.951109,0.0281 z m 126.44928,11.22172 c -1.32283,-0.52791 -3.31418,-1.59835 -4.42524,-2.37878 -1.11106,-0.78042 -2.13572,-1.41895 -2.27701,-1.41895 -0.14129,0 -2.67702,-1.67 -5.63495,-3.71112 -2.95795,-2.0411 -5.50091,-3.7111 -5.65102,-3.7111 -0.15014,0 -2.6931,-1.67 -5.65101,-3.71111 -2.95795,-2.0411 -5.51084,-3.7111 -5.67311,-3.7111 -0.16228,0 -1.97721,-1.17882 -4.03316,-2.61962 -2.05597,-1.44078 -3.92897,-2.6196 -4.16223,-2.6196 -0.23325,0 -1.2267,0.64563 -2.20764,1.43473 -0.98096,0.7891 -2.27259,1.76348 -2.87029,2.16527 -0.5977,0.40179 -2.16259,1.52087 -3.47754,2.48682 -1.31495,0.96597 -3.36888,2.46034 -4.56429,3.32085 -1.19541,0.86054 -2.95592,2.14427 -3.91224,2.85278 -0.95633,0.70851 -2.71684,1.98178 -3.91225,2.8295 -1.19541,0.84771 -3.05373,2.21011 -4.12959,3.02753 -3.24413,2.46482 -8.36771,5.45071 -10.2129,5.95179 -2.63681,0.71605 -10.06356,0.25747 -12.17938,-0.75205 -2.94236,-1.40389 -4.57982,-2.81475 -6.23143,-5.36913 -2.35358,-3.64004 -2.67543,-5.13706 -3.10778,-14.45528 -0.49146,-10.59248 -0.527,-154.42518 -0.0409,-165.48128 0.3116,-7.08657 0.47658,-8.32845 1.33404,-10.04182 2.74388,-5.4828 5.70465,-7.18885 14.35467,-8.27147 5.69289,-0.7125 20.58604,-0.58314 26.92066,0.23384 6.14489,0.79251 17.46326,3.51476 22.79447,5.48243 4.90168,1.80913 14.18782,6.01561 15.43888,6.99357 0.57018,0.4457 1.21898,0.81037 1.44176,0.81037 0.22279,0 1.04623,0.49118 1.82986,1.09151 0.78363,0.60032 1.60194,1.0934 1.81845,1.09574 0.21651,0.002 1.21609,0.64086 2.22128,1.41895 1.00519,0.7781 3.23054,2.49531 4.94519,3.81602 5.85715,4.51145 13.22792,13.14421 16.96129,19.86534 4.25186,7.65461 7.23356,17.02091 8.22666,25.8421 0.61678,5.47846 1.05495,94.29344 0.55649,112.79734 l -0.3592,13.335 -1.43419,2.92602 c -2.34152,4.77717 -4.99249,7.2408 -9.42303,8.75706 -3.22756,1.10455 -10.16817,0.95703 -13.27333,-0.28215 z m 10.48253,-12.34375 c 0.46274,-0.42062 1.04717,-1.46955 1.29874,-2.33095 0.3137,-1.07414 0.40796,-20.42581 0.30005,-61.59879 l -0.15735,-60.03263 -0.96823,-4.27385 c -0.53252,-2.35061 -1.64375,-6.17218 -2.4694,-8.49238 -7.56374,-21.25529 -29.36798,-36.76131 -59.18637,-42.09023 -4.68766,-0.83775 -7.14034,-0.99946 -15.35908,-1.0127 -6.38996,-0.0102 -10.87461,0.18737 -12.93631,0.57015 l -3.15569,0.58591 0.11289,88.33955 0.11288,88.33957 0.91237,1.23261 c 0.93271,1.26011 2.78453,1.76628 4.69013,1.282 0.50485,-0.12824 9.03012,-6.13513 18.94503,-13.34849 15.59729,-11.34746 18.23565,-13.11522 19.57417,-13.11522 1.29613,0 4.88632,2.19161 22.13524,13.51239 11.32351,7.43183 21.00048,13.5776 21.5044,13.65726 1.42207,0.22484 3.71788,-0.38002 4.64663,-1.2242 z"
     id="path1" />
</svg>
