<svg id="svg" version="1.1" width="800" height="800" xmlns="http://www.w3.org/2000/svg"><path d="M155.000 174.456 C 154.175 174.655,150.315 175.366,146.422 176.037 C 138.540 177.394,134.370 179.309,124.320 186.185 C 118.408 190.230,113.000 195.629,113.000 197.487 C 113.000 197.800,111.508 201.080,109.684 204.778 C 102.149 220.056,102.693 207.187,103.821 343.500 C 104.782 459.590,104.928 465.960,106.835 475.000 C 107.937 480.225,109.816 491.250,111.011 499.500 C 113.632 517.598,115.450 525.198,118.426 530.500 C 119.661 532.700,122.344 538.775,124.388 544.000 C 126.432 549.225,129.875 555.975,132.040 559.000 C 134.205 562.025,136.926 566.300,138.088 568.500 C 141.341 574.661,163.459 595.863,171.050 600.098 C 174.598 602.076,180.529 605.564,184.232 607.848 C 187.934 610.131,191.569 612.000,192.308 612.000 C 193.991 612.000,206.554 616.367,214.500 619.714 C 218.231 621.286,224.660 622.760,231.500 623.612 C 244.881 625.278,292.842 625.473,308.576 623.925 C 319.206 622.879,322.763 621.803,339.504 614.566 C 341.156 613.851,344.081 612.927,346.004 612.511 C 350.665 611.504,356.213 608.625,360.222 605.133 C 362.025 603.562,365.075 601.482,367.000 600.509 C 368.925 599.537,372.791 596.662,375.591 594.121 C 378.392 591.579,382.222 588.150,384.102 586.500 C 385.983 584.850,388.642 582.045,390.011 580.266 C 392.235 577.376,393.194 576.965,399.019 576.402 L 405.537 575.771 417.519 587.416 C 424.108 593.820,431.376 599.969,433.669 601.080 C 435.962 602.191,438.401 603.778,439.089 604.608 C 441.299 607.270,448.262 610.773,457.500 613.869 C 462.450 615.528,469.292 618.046,472.705 619.465 C 482.787 623.654,499.392 625.385,529.500 625.385 C 559.602 625.385,576.211 623.654,586.295 619.466 C 594.197 616.184,606.633 612.000,608.487 612.000 C 610.005 612.000,619.462 606.720,622.047 604.429 C 622.898 603.675,625.788 601.891,628.469 600.466 C 637.994 595.401,658.692 575.482,662.719 567.505 C 663.553 565.852,665.945 562.250,668.033 559.500 C 670.122 556.750,673.049 551.350,674.538 547.500 C 679.793 533.914,680.407 532.476,682.014 530.000 C 684.423 526.287,686.604 517.233,688.998 501.000 C 690.174 493.025,692.002 482.156,693.060 476.846 C 696.114 461.522,696.974 426.703,696.973 318.500 C 696.971 208.663,697.551 218.321,690.002 202.503 C 686.061 194.246,682.515 190.289,672.861 183.377 C 663.363 176.576,657.011 175.079,637.500 175.047 C 622.819 175.023,615.997 176.177,610.327 179.644 C 603.330 183.923,593.080 192.728,590.648 196.549 C 584.659 205.957,584.834 202.428,583.881 333.000 C 582.958 459.335,583.230 452.358,578.509 471.000 C 572.931 493.025,572.930 493.028,565.668 501.000 C 561.910 505.125,557.575 509.298,556.035 510.274 C 551.392 513.215,527.169 519.000,519.500 519.000 C 511.788 519.000,488.251 513.334,482.652 510.130 C 478.703 507.870,468.104 493.658,465.345 486.924 C 462.968 481.121,461.566 471.845,459.990 451.500 C 459.479 444.900,459.038 391.125,459.011 332.000 C 458.982 271.113,458.555 221.703,458.027 218.049 C 456.705 208.896,448.212 191.569,443.897 189.218 C 442.163 188.273,438.645 186.094,436.080 184.376 C 428.413 179.242,423.935 177.366,415.230 175.640 C 404.859 173.584,398.003 173.569,388.258 175.582 C 380.751 177.132,377.538 178.484,369.500 183.471 C 367.300 184.836,363.783 186.887,361.685 188.030 C 353.917 192.259,349.812 198.131,344.913 212.022 L 342.627 218.500 342.318 314.500 C 341.878 450.571,341.736 458.679,339.581 470.000 C 336.665 485.322,334.230 492.756,331.139 495.777 C 329.606 497.274,326.896 500.644,325.117 503.265 C 323.338 505.886,320.814 508.731,319.508 509.587 C 314.362 512.959,290.262 519.000,281.958 519.000 C 269.175 519.000,239.000 509.991,239.000 506.175 C 239.000 505.735,236.965 503.153,234.478 500.437 C 228.516 493.928,227.450 491.817,225.109 481.881 C 219.583 458.422,219.729 460.521,218.950 393.000 C 218.548 358.075,218.169 304.659,218.109 274.299 C 217.989 213.663,217.984 213.601,211.782 201.000 C 207.928 193.169,198.478 183.283,191.472 179.754 C 188.737 178.376,184.025 176.720,181.000 176.074 C 175.446 174.888,157.771 173.788,155.000 174.456 M173.446 178.960 C 189.183 180.987,200.345 188.606,207.450 202.169 C 209.553 206.184,211.730 210.826,212.288 212.485 C 212.851 214.162,213.395 227.704,213.513 243.000 C 214.769 405.855,215.295 450.380,216.024 455.500 C 217.412 465.249,220.900 483.112,222.481 488.566 C 223.936 493.588,224.959 495.161,234.360 506.836 C 239.919 513.738,241.936 514.746,258.987 519.142 C 279.589 524.453,289.576 524.006,312.359 516.757 C 323.152 513.323,321.311 514.880,335.590 497.102 C 338.346 493.671,339.697 489.557,342.025 477.500 C 346.207 455.844,346.212 455.672,346.545 336.349 C 346.768 256.665,347.212 218.927,347.959 216.151 C 349.438 210.660,355.808 197.405,357.739 195.800 C 359.518 194.323,371.031 187.440,378.500 183.389 C 387.557 178.477,400.348 176.858,412.566 179.078 C 419.451 180.329,429.489 184.452,432.786 187.383 C 434.043 188.501,437.106 190.560,439.593 191.958 C 443.694 194.264,444.583 195.497,449.160 205.244 L 454.206 215.987 454.559 325.744 C 454.908 434.307,455.443 454.991,458.413 474.536 C 460.418 487.731,461.880 491.582,467.973 499.710 C 478.478 513.725,478.142 513.435,487.159 516.285 C 503.011 521.297,513.789 523.238,522.500 522.652 C 531.450 522.050,552.032 517.057,557.761 514.098 C 562.009 511.905,573.147 500.551,575.483 496.033 C 576.337 494.381,579.319 484.135,582.108 473.265 L 587.180 453.500 587.569 342.500 C 587.782 281.450,588.223 227.675,588.547 223.000 C 589.273 212.531,590.692 205.583,593.038 201.000 C 596.025 195.167,606.489 186.278,615.500 181.919 C 620.221 179.635,621.505 179.500,638.500 179.501 C 655.436 179.501,656.825 179.646,662.000 181.950 C 668.068 184.652,680.142 193.761,682.572 197.469 C 683.425 198.772,686.148 204.438,688.623 210.061 L 693.122 220.284 692.971 319.392 C 692.801 430.907,692.076 460.250,689.100 476.000 C 688.009 481.775,686.409 491.225,685.545 497.000 C 682.377 518.169,681.807 520.621,678.567 527.000 C 676.751 530.575,674.118 536.650,672.716 540.500 C 668.754 551.377,667.317 554.232,663.905 558.000 C 662.162 559.925,660.216 562.714,659.581 564.197 C 656.485 571.423,635.552 591.836,626.060 596.886 C 623.552 598.220,619.925 600.550,618.000 602.063 C 614.286 604.982,608.011 607.757,599.000 610.463 C 595.975 611.372,590.241 613.451,586.258 615.083 C 569.205 622.072,529.909 623.798,488.500 619.378 C 485.750 619.084,480.575 617.797,477.000 616.518 C 450.627 607.078,446.333 605.394,445.000 603.969 C 443.573 602.443,434.100 596.000,433.283 596.000 C 432.761 596.000,427.034 590.821,420.555 584.491 C 414.077 578.161,407.692 572.710,406.366 572.377 C 405.040 572.044,400.967 572.092,397.315 572.483 C 392.000 573.052,390.260 573.686,388.588 575.662 C 382.147 583.274,370.568 593.417,363.999 597.200 C 361.523 598.626,358.622 600.760,357.552 601.943 C 355.166 604.578,351.965 606.121,341.000 609.915 C 336.325 611.532,329.163 614.250,325.084 615.953 C 315.180 620.090,305.932 620.961,271.711 620.983 C 242.695 621.001,227.353 619.899,220.535 617.309 C 218.316 616.466,210.974 613.865,204.221 611.530 C 190.779 606.882,186.003 604.698,181.601 601.189 C 180.007 599.918,176.182 597.593,173.101 596.022 C 169.296 594.082,163.412 589.105,154.750 580.500 C 147.737 573.534,142.000 567.236,142.000 566.507 C 142.000 565.777,140.245 562.959,138.100 560.245 C 133.657 554.625,130.776 549.286,127.478 540.567 C 126.217 537.230,123.605 531.214,121.674 527.199 C 119.681 523.054,117.726 517.001,117.151 513.199 C 116.595 509.514,115.410 501.550,114.518 495.500 C 113.626 489.450,112.255 481.125,111.472 477.000 C 108.167 459.595,108.040 454.540,107.813 331.000 L 107.607 219.500 112.027 210.000 C 118.129 196.884,119.836 194.138,122.870 192.558 C 124.317 191.804,126.850 189.993,128.500 188.532 C 137.867 180.237,155.013 176.586,173.446 178.960 " stroke="none" fill="#000000" fill-rule="evenodd"/></svg>