<?xml version="1.0" encoding="UTF-8" standalone="no"?>
<!-- Created with Inkscape (http://www.inkscape.org/) -->

<svg
   version="1.1"
   id="svg1"
   width="400"
   height="400"
   viewBox="0 0 400 400"
   xmlns="http://www.w3.org/2000/svg"
   xmlns:svg="http://www.w3.org/2000/svg">
  <defs
     id="defs1" />
  <path
     style="fill:#666666;fill-opacity:1;stroke-width:1.36198"
     d="m 55.608465,358.09288 c -5.15082,-1.22457 -9.95843,-5.25744 -12.453197,-10.4465 L 41.5805,344.37095 V 200.25026 56.129598 l 0.975472,-2.402012 c 2.026062,-4.988997 6.047523,-8.954293 11.0963,-10.941325 l 2.715498,-1.06873 141.3489,-0.11558 c 88.58875,-0.07244 142.47668,0.04092 144.37035,0.30369 7.6327,1.059138 13.75835,6.446292 15.65748,13.769804 0.60333,2.326587 0.675,17.63744 0.675,144.208335 0,101.97681 -0.13508,142.25307 -0.48221,143.91974 -1.14228,5.48246 -4.96604,10.25274 -10.36821,12.93456 l -3.23928,1.6082 -143.54611,0.0668 c -82.23535,0.0382 -144.241914,-0.0981 -145.175225,-0.32029 z M 178.02775,316.2167 c 0.59791,-0.47228 1.32393,-1.43278 1.61339,-2.13448 0.63457,-1.53838 0.3457,-80.09638 -0.34553,-93.96079 -0.2335,-4.68389 -0.44109,-36.68832 -0.46125,-71.12086 -0.0335,-56.99099 -0.10053,-62.739564 -0.74771,-64.109256 -1.38946,-2.940235 1.38026,-2.776324 -46.91269,-2.776324 -48.517014,0 -45.748228,-0.168094 -47.00559,2.853718 -0.91972,2.210357 -0.931177,227.015012 -0.0117,229.224852 1.290046,3.10036 -2.328352,2.88179 47.70777,2.88179 44.15865,0 45.09835,-0.0174 46.16331,-0.85865 z m 134.25321,0.22281 c 0.67349,-0.34973 1.55289,-1.33076 1.95426,-2.18007 0.67427,-1.42685 0.71857,-6.09937 0.58283,-61.4889 -0.13535,-55.20068 -0.20779,-60.25574 -0.91636,-63.87522 -2.29914,-11.74449 -7.75441,-21.92649 -16.14721,-30.13798 -12.2776,-12.01236 -31.86674,-20.39186 -52.63156,-22.51381 -5.77658,-0.59031 -16.99037,-0.33494 -21.41979,0.48779 l -2.71825,0.50489 v 88.20133 c 0,66.21929 0.12624,88.43912 0.50596,89.15534 0.77138,1.4544 1.73032,2.01658 3.4656,2.03186 1.38917,0.0122 3.79226,-1.59124 19.94191,-13.30634 19.44977,-14.10911 19.67117,-14.23616 22.32453,-12.8102 0.52205,0.28056 8.87594,5.72096 18.56422,12.0897 9.68829,6.36879 18.67998,12.23161 19.98153,13.02852 2.59827,1.59087 4.54616,1.83403 6.51233,0.81309 z"
     id="path1" />
</svg>
