<?xml version="1.0" encoding="UTF-8" standalone="no"?>
<svg
   id="svg"
   version="1.1"
   width="400"
   height="400"
   viewBox="0, 0, 400,400"
   sodipodi:docname="added_to_wallabag.svg"
   inkscape:version="1.4 (e7c3feb100, 2024-10-09)"
   xmlns:inkscape="http://www.inkscape.org/namespaces/inkscape"
   xmlns:sodipodi="http://sodipodi.sourceforge.net/DTD/sodipodi-0.dtd"
   xmlns="http://www.w3.org/2000/svg"
   xmlns:svg="http://www.w3.org/2000/svg">
  <defs
     id="defs1" />
  <sodipodi:namedview
     id="namedview1"
     pagecolor="#ffffff"
     bordercolor="#000000"
     borderopacity="0.25"
     inkscape:showpageshadow="2"
     inkscape:pageopacity="0.0"
     inkscape:pagecheckerboard="0"
     inkscape:deskcolor="#d1d1d1"
     inkscape:zoom="1.0992187"
     inkscape:cx="245.629"
     inkscape:cy="196.5032"
     inkscape:window-width="1920"
     inkscape:window-height="1012"
     inkscape:window-x="0"
     inkscape:window-y="0"
     inkscape:window-maximized="1"
     inkscape:current-layer="svgg" />
  <g
     id="svgg">
    <path
       id="path0"
       d="M72.885 87.628 C 69.950 88.009,66.735 89.382,64.782 91.088 C 64.022 91.751,62.410 92.888,61.200 93.614 C 59.990 94.340,58.693 95.195,58.317 95.513 C 57.529 96.182,54.601 102.067,52.800 106.600 L 51.566 109.707 51.724 169.153 C 51.895 233.148,51.740 228.193,53.947 240.200 C 54.392 242.620,55.218 247.953,55.783 252.052 C 56.971 260.677,57.371 262.198,59.410 265.844 C 60.234 267.318,61.567 270.433,62.371 272.765 C 63.483 275.992,64.284 277.559,65.719 279.322 C 66.757 280.596,68.073 282.575,68.644 283.719 C 69.215 284.864,70.741 286.880,72.036 288.200 C 80.454 296.784,82.647 298.713,85.694 300.219 C 87.234 300.981,89.572 302.413,90.888 303.403 C 92.480 304.599,94.239 305.481,96.141 306.036 C 101.903 307.718,104.248 308.536,106.426 309.625 C 111.471 312.146,120.702 312.992,139.765 312.682 C 156.561 312.408,159.391 312.010,165.600 309.050 C 167.250 308.264,170.192 307.161,172.137 306.601 C 176.423 305.366,177.392 304.884,179.831 302.773 C 180.872 301.872,182.641 300.725,183.762 300.223 C 184.938 299.696,186.627 298.429,187.756 297.225 C 188.832 296.078,190.399 294.705,191.239 294.175 C 192.079 293.645,193.490 292.232,194.374 291.035 C 196.355 288.354,196.117 288.492,199.299 288.166 C 203.066 287.780,203.736 288.055,205.550 290.726 C 206.415 292.000,207.905 293.552,208.862 294.174 C 209.818 294.796,211.402 296.207,212.382 297.311 C 213.500 298.569,214.956 299.667,216.289 300.256 C 217.457 300.773,219.175 301.893,220.107 302.744 C 222.282 304.734,223.303 305.234,228.384 306.798 C 230.686 307.507,233.781 308.704,235.263 309.460 C 244.332 314.081,283.793 314.195,294.000 309.629 C 298.249 307.728,299.195 307.384,302.281 306.610 C 305.811 305.725,307.935 304.732,310.000 303.001 C 310.990 302.172,313.088 300.881,314.663 300.133 C 316.623 299.202,317.974 298.225,318.947 297.038 C 319.729 296.084,321.231 294.747,322.284 294.066 C 323.338 293.386,324.790 291.956,325.511 290.890 C 326.232 289.823,327.626 288.279,328.609 287.457 C 329.712 286.535,330.865 285.014,331.622 283.482 C 332.297 282.117,333.448 280.370,334.180 279.600 C 335.860 277.834,336.621 276.320,338.058 271.887 C 338.689 269.940,339.913 267.174,340.778 265.739 C 342.444 262.977,343.256 260.103,343.981 254.400 C 344.660 249.062,345.171 245.868,346.414 239.200 C 348.389 228.601,348.400 228.205,348.400 166.981 L 348.400 109.246 347.385 106.523 C 344.684 99.278,342.393 95.581,339.515 93.826 C 338.049 92.932,336.343 91.715,335.724 91.123 C 332.848 88.366,327.783 87.197,318.800 87.215 C 309.810 87.234,307.403 87.894,302.436 91.703 C 296.792 96.032,295.651 97.178,294.449 99.723 C 291.684 105.578,291.827 102.159,291.602 167.600 L 291.400 226.600 289.694 233.400 C 285.954 248.307,286.536 246.717,283.827 249.422 C 282.492 250.754,280.814 252.589,280.097 253.499 C 277.479 256.823,263.038 260.138,256.000 259.031 C 245.433 257.368,240.245 255.217,237.891 251.523 C 237.092 250.270,235.807 248.546,235.035 247.691 C 232.958 245.393,232.024 242.800,231.184 237.000 C 229.687 226.668,229.608 223.141,229.604 165.862 C 229.599 102.195,229.923 108.361,226.180 100.596 C 223.890 95.848,223.168 94.972,220.400 93.594 C 219.410 93.101,217.564 91.923,216.297 90.977 C 209.492 85.890,193.239 85.648,186.457 90.532 C 185.436 91.268,183.063 92.698,181.185 93.710 C 176.527 96.219,174.819 98.598,172.434 105.896 L 171.228 109.587 171.097 168.094 L 170.967 226.600 169.703 234.200 C 167.992 244.486,167.261 246.690,164.961 248.501 C 164.471 248.887,163.259 250.434,162.268 251.939 C 160.378 254.807,160.211 254.918,155.600 256.343 C 143.317 260.140,139.711 260.251,128.495 257.178 C 121.476 255.255,120.668 254.847,119.209 252.482 C 118.570 251.447,117.172 249.776,116.103 248.770 C 113.757 246.562,113.078 244.534,111.219 234.200 C 110.546 230.460,109.874 226.950,109.726 226.400 C 109.578 225.850,109.353 199.210,109.226 167.200 L 108.996 109.000 108.053 105.600 C 105.813 97.519,102.543 93.658,94.220 89.267 C 90.527 87.319,80.938 86.582,72.885 87.628 "
       stroke="none"
       fill="#0b0b0b"
       fill-rule="evenodd"
       style="stroke:#666666;stroke-opacity:1;fill:#666666;stroke-width:20;stroke-dasharray:none;stroke-linejoin:miter;stroke-linecap:square;fill-opacity:1" />
    <path
       id="path1"
       d="M0.000 200.000 L 0.000 400.000 200.000 400.000 L 400.000 400.000 400.000 200.000 L 400.000 0.000 200.000 0.000 L 0.000 0.000 0.000 200.000 M88.947 87.580 C 97.598 88.695,105.409 96.062,108.053 105.600 L 108.996 109.000 109.226 167.200 C 109.353 199.210,109.578 225.850,109.726 226.400 C 109.874 226.950,110.546 230.460,111.219 234.200 C 113.078 244.534,113.757 246.562,116.103 248.770 C 117.172 249.776,118.570 251.447,119.209 252.482 C 120.668 254.847,121.476 255.255,128.495 257.178 C 139.711 260.251,143.317 260.140,155.600 256.343 C 160.211 254.918,160.378 254.807,162.268 251.939 C 163.259 250.434,164.471 248.887,164.961 248.501 C 167.261 246.690,167.992 244.486,169.703 234.200 L 170.967 226.600 171.097 168.094 L 171.228 109.587 172.434 105.896 C 174.819 98.598,176.527 96.219,181.185 93.710 C 183.063 92.698,185.436 91.268,186.457 90.532 C 193.239 85.648,209.492 85.890,216.297 90.977 C 217.564 91.923,219.410 93.101,220.400 93.594 C 223.168 94.972,223.890 95.848,226.180 100.596 C 229.923 108.361,229.599 102.195,229.604 165.862 C 229.608 223.141,229.687 226.668,231.184 237.000 C 232.024 242.800,232.958 245.393,235.035 247.691 C 235.807 248.546,237.092 250.270,237.891 251.523 C 239.995 254.824,241.028 255.389,248.760 257.465 C 257.354 259.772,261.003 259.897,268.200 258.131 C 276.890 255.999,278.676 255.304,280.097 253.499 C 280.814 252.589,282.492 250.754,283.827 249.422 C 286.536 246.717,285.954 248.307,289.694 233.400 L 291.400 226.600 291.602 167.600 C 291.855 93.919,290.910 100.544,302.436 91.703 C 307.403 87.894,309.810 87.234,318.800 87.215 C 327.783 87.197,332.848 88.366,335.724 91.123 C 336.343 91.715,338.049 92.932,339.515 93.826 C 342.393 95.581,344.684 99.278,347.385 106.523 L 348.400 109.246 348.400 166.981 C 348.400 228.205,348.389 228.601,346.414 239.200 C 345.171 245.868,344.660 249.062,343.981 254.400 C 343.256 260.103,342.444 262.977,340.778 265.739 C 339.913 267.174,338.689 269.940,338.058 271.887 C 336.621 276.320,335.860 277.834,334.180 279.600 C 333.448 280.370,332.297 282.117,331.622 283.482 C 330.865 285.014,329.712 286.535,328.609 287.457 C 327.626 288.279,326.232 289.823,325.511 290.890 C 324.790 291.956,323.338 293.386,322.284 294.066 C 321.231 294.747,319.729 296.084,318.947 297.038 C 317.974 298.225,316.623 299.202,314.663 300.133 C 313.088 300.881,310.990 302.172,310.000 303.001 C 307.935 304.732,305.811 305.725,302.281 306.610 C 299.195 307.384,298.249 307.728,294.000 309.629 C 283.793 314.195,244.332 314.081,235.263 309.460 C 233.781 308.704,230.686 307.507,228.384 306.798 C 223.303 305.234,222.282 304.734,220.107 302.744 C 219.175 301.893,217.457 300.773,216.289 300.256 C 214.956 299.667,213.500 298.569,212.382 297.311 C 211.402 296.207,209.818 294.796,208.862 294.174 C 207.905 293.552,206.415 292.000,205.550 290.726 C 203.736 288.055,203.066 287.780,199.299 288.166 C 196.117 288.492,196.355 288.354,194.374 291.035 C 193.490 292.232,192.079 293.645,191.239 294.175 C 190.399 294.705,188.832 296.078,187.756 297.225 C 186.627 298.429,184.938 299.696,183.762 300.223 C 182.641 300.725,180.872 301.872,179.831 302.773 C 177.392 304.884,176.423 305.366,172.137 306.601 C 170.192 307.161,167.250 308.264,165.600 309.050 C 159.391 312.010,156.561 312.408,139.765 312.682 C 120.702 312.992,111.471 312.146,106.426 309.625 C 104.248 308.536,101.903 307.718,96.141 306.036 C 94.239 305.481,92.480 304.599,90.888 303.403 C 89.572 302.413,87.234 300.981,85.694 300.219 C 82.647 298.713,80.454 296.784,72.036 288.200 C 70.741 286.880,69.215 284.864,68.644 283.719 C 68.073 282.575,66.757 280.596,65.719 279.322 C 64.284 277.559,63.483 275.992,62.371 272.765 C 61.567 270.433,60.234 267.318,59.410 265.844 C 57.371 262.198,56.971 260.677,55.783 252.052 C 55.218 247.953,54.392 242.620,53.947 240.200 C 51.740 228.193,51.895 233.148,51.724 169.153 L 51.566 109.707 52.800 106.600 C 54.601 102.067,57.529 96.182,58.317 95.513 C 58.693 95.195,59.990 94.340,61.200 93.614 C 62.410 92.888,64.022 91.751,64.782 91.088 C 68.665 87.697,78.628 86.250,88.947 87.580 "
       stroke="none"
       fill="#ffffff"
       fill-rule="evenodd"
       style="fill:none" />
  </g>
</svg>
